<svg xmlns="http://www.w3.org/2000/svg" id="svg" width="1200" height="1200" viewBox="0 0 1200 1200">
    <defs>
        <linearGradient id="vortex-lgradient" color-interpolation="linearRGB" x1="0" y1="1" x2="0" y2="0">
            <stop offset="0.15" stop-color="#4edda6ff"/>
            <stop offset="0.67" stop-color="#7B68EE" stop-opacity="0.9"/>
            <stop offset="1" stop-color="#4169E1" stop-opacity="0.8"/>
        </linearGradient>
    </defs>
    <g transform="translate(-10 230)">
        <rect x="748" y="363.5" width="120" height="120" rx="24" ry="24" fill="url(#vortex-lgradient)" fill-opacity="0.24" transform="rotate(-439) scale(6.8)" transform-origin="805px 455.5px"></rect>
        <rect x="748" y="363.5" width="120" height="120" rx="24" ry="24" fill="url(#vortex-lgradient)" fill-opacity="0.24" transform="rotate(-406) scale(6)" transform-origin="805px 455.5px"></rect>
        <rect x="748" y="363.5" width="120" height="120" rx="24" ry="24" fill="url(#vortex-lgradient)" fill-opacity="0.32" transform="rotate(-373) scale(5.2)" transform-origin="805px 455.5px"></rect>
        <rect x="748" y="363.5" width="120" height="120" rx="24" ry="24" fill="url(#vortex-lgradient)" fill-opacity="0.48" transform="rotate(-340) scale(4.44)" transform-origin="805px 455.5px"></rect>
        <rect x="748" y="363.5" width="120" height="120" rx="24" ry="24" fill="url(#vortex-lgradient)" fill-opacity="0.64" transform="rotate(-307) scale(3.76)" transform-origin="805px 455.5px"></rect>
        <rect x="748" y="363.5" width="120" height="120" rx="24" ry="24" fill="url(#vortex-lgradient)" fill-opacity="0.72" transform="rotate(-274) scale(3.18)" transform-origin="805px 455.5px"></rect>
        <rect x="748" y="363.5" width="120" height="120" rx="24" ry="24" fill="url(#vortex-lgradient)" fill-opacity="0.8" transform="rotate(-241) scale(2.7)" transform-origin="805px 455.5px"></rect>
        <rect x="748" y="363.5" width="120" height="120" rx="24" ry="24" fill="url(#vortex-lgradient)" fill-opacity="0.8" transform="rotate(-208) scale(2.29)" transform-origin="805px 455.5px"></rect>
        <rect x="748" y="363.5" width="120" height="120" rx="24" ry="24" fill="url(#vortex-lgradient)" fill-opacity="0.88" transform="rotate(-175) scale(1.94)" transform-origin="805px 455.5px"></rect>
        <rect x="748" y="363.5" width="120" height="120" rx="24" ry="24" fill="url(#vortex-lgradient)" fill-opacity="0.96" transform="rotate(-142) scale(1.64)" transform-origin="805px 455.5px"></rect>
        <rect x="748" y="363.5" width="120" height="120" rx="24" ry="24" fill="url(#vortex-lgradient)" fill-opacity="1" transform="rotate(-109) scale(1.39)" transform-origin="805px 455.5px"></rect>
        <rect x="748" y="363.5" width="120" height="120" rx="24" ry="24" fill="url(#vortex-lgradient)" fill-opacity="1" transform="rotate(-76) scale(1.18)" transform-origin="805px 455.5px"></rect>
        <rect x="748" y="363.5" width="120" height="120" rx="24" ry="24" fill="url(#vortex-lgradient)" fill-opacity="1" transform="rotate(-43) scale(1)" transform-origin="805px 455.5px"></rect>
        <rect x="748" y="363.5" width="120" height="120" rx="24" ry="24" fill="url(#vortex-lgradient)" fill-opacity="1" transform="rotate(-10) scale(0.9)" transform-origin="805px 455.5px"></rect>
    </g>
</svg>
